<?xml version="1.0" standalone="no"?>
<!DOCTYPE svg PUBLIC "-//W3C//DTD SVG 20010904//EN"
 "http://www.w3.org/TR/2001/REC-SVG-20010904/DTD/svg10.dtd">
<svg version="1.0" xmlns="http://www.w3.org/2000/svg"
 width="260.000000pt" height="260.000000pt" viewBox="0 0 260.000000 260.000000"
 preserveAspectRatio="xMidYMid meet">
<metadata>
Created by potrace 1.14, written by Peter Selinger 2001-2017
</metadata>
<g transform="translate(0.000000,260.000000) scale(0.100000,-0.100000)"
fill="#000000" stroke="none">
<path d="M789 2267 c-112 -60 -143 -211 -62 -308 59 -70 162 -91 247 -49 54
25 86 66 101 129 43 167 -134 308 -286 228z"/>
<path d="M1511 2267 c-59 -30 -100 -90 -107 -153 -30 -253 339 -315 394 -67
36 162 -141 298 -287 220z"/>
<path d="M665 1816 c-45 -19 -83 -70 -90 -119 -3 -23 -5 -340 -3 -704 3 -655
3 -662 24 -690 12 -15 36 -37 55 -48 32 -19 51 -20 319 -19 391 0 537 23 717
109 160 78 264 207 315 392 19 69 22 103 22 293 -1 187 -3 225 -22 291 -79
289 -280 443 -641 493 -147 21 -650 22 -696 2z m646 -480 c90 -19 143 -48 179
-98 45 -61 63 -136 58 -232 -8 -145 -66 -229 -182 -265 -83 -26 -279 -39 -301
-21 -13 11 -15 57 -15 315 0 166 3 305 7 308 12 12 186 7 254 -7z"/>
</g>
</svg>
